<svg width="58" height="62" viewBox="0 0 58 62" fill="none" xmlns="http://www.w3.org/2000/svg">
<g filter="url(#filter0_d_455_230)">
<path d="M50.875 13.31C50.8498 11.4166 50.4953 9.54194 49.8275 7.77C49.2484 6.27538 48.3638 4.918 47.2304 3.78458C46.097 2.65116 44.7396 1.76663 43.245 1.1875C41.4958 0.530893 39.6479 0.175853 37.78 0.1375C35.375 0.0300002 34.6125 0 28.5075 0C22.4025 0 21.62 1.67638e-07 19.2325 0.1375C17.3654 0.176135 15.5184 0.53117 13.77 1.1875C12.2751 1.76622 10.9176 2.65061 9.78408 3.78408C8.65061 4.91755 7.76622 6.27515 7.1875 7.77C6.52958 9.51783 6.17531 11.3653 6.14 13.2325C6.0325 15.64 6 16.4025 6 22.5075C6 28.6125 6 29.3925 6.14 31.7825C6.1775 33.6525 6.53 35.4975 7.1875 37.25C7.76719 38.7444 8.65224 40.1014 9.78609 41.2344C10.9199 42.3674 12.2777 43.2514 13.7725 43.83C15.5161 44.513 17.3634 44.8934 19.235 44.955C21.6425 45.0625 22.405 45.095 28.51 45.095C34.615 45.095 35.3975 45.095 37.785 44.955C39.6529 44.9182 41.5009 44.564 43.25 43.9075C44.7442 43.3277 46.1013 42.4429 47.2346 41.3096C48.3679 40.1763 49.2527 38.8192 49.8325 37.325C50.49 35.575 50.8425 33.73 50.88 31.8575C50.9875 29.4525 51.02 28.69 51.02 22.5825C51.015 16.4775 51.015 15.7025 50.875 13.31ZM28.4925 34.0525C22.1075 34.0525 16.935 28.88 16.935 22.495C16.935 16.11 22.1075 10.9375 28.4925 10.9375C31.5577 10.9375 34.4974 12.1552 36.6649 14.3226C38.8323 16.4901 40.05 19.4298 40.05 22.495C40.05 25.5602 38.8323 28.4999 36.6649 30.6674C34.4974 32.8348 31.5577 34.0525 28.4925 34.0525ZM40.51 13.205C40.156 13.2053 39.8054 13.1358 39.4783 13.0005C39.1512 12.8652 38.8539 12.6667 38.6036 12.4164C38.3533 12.1661 38.1548 11.8688 38.0195 11.5417C37.8842 11.2146 37.8147 10.864 37.815 10.51C37.815 10.1563 37.8847 9.80597 38.0201 9.47915C38.1554 9.15233 38.3538 8.85537 38.604 8.60523C38.8541 8.35509 39.1511 8.15667 39.4779 8.0213C39.8047 7.88593 40.155 7.81625 40.5088 7.81625C40.8625 7.81625 41.2128 7.88593 41.5396 8.0213C41.8664 8.15667 42.1634 8.35509 42.4135 8.60523C42.6637 8.85537 42.8621 9.15233 42.9975 9.47915C43.1328 9.80597 43.2025 10.1563 43.2025 10.51C43.2025 12 41.9975 13.205 40.51 13.205Z" fill="#2F2D61"/>
</g>
<path d="M28.4925 30.0025C32.6388 30.0025 36 26.6413 36 22.495C36 18.3488 32.6388 14.9875 28.4925 14.9875C24.3462 14.9875 20.985 18.3488 20.985 22.495C20.985 26.6413 24.3462 30.0025 28.4925 30.0025Z" fill="#2F2D61"/>
<defs>
<filter id="filter0_d_455_230" x="0" y="0" width="57.02" height="61.095" filterUnits="userSpaceOnUse" color-interpolation-filters="sRGB">
<feFlood flood-opacity="0" result="BackgroundImageFix"/>
<feColorMatrix in="SourceAlpha" type="matrix" values="0 0 0 0 0 0 0 0 0 0 0 0 0 0 0 0 0 0 127 0" result="hardAlpha"/>
<feOffset dy="10"/>
<feGaussianBlur stdDeviation="3"/>
<feComposite in2="hardAlpha" operator="out"/>
<feColorMatrix type="matrix" values="0 0 0 0 0 0 0 0 0 0 0 0 0 0 0 0 0 0 0.25 0"/>
<feBlend mode="normal" in2="BackgroundImageFix" result="effect1_dropShadow_455_230"/>
<feBlend mode="normal" in="SourceGraphic" in2="effect1_dropShadow_455_230" result="shape"/>
</filter>
</defs>
</svg>
