<svg width="58" height="62" viewBox="0 0 58 62" fill="none" xmlns="http://www.w3.org/2000/svg">
<g filter="url(#filter0_d_461_159)">
<path d="M51.7451 13.31C51.7199 11.4166 51.3654 9.54194 50.6976 7.77C50.1185 6.27538 49.234 4.918 48.1005 3.78458C46.9671 2.65116 45.6097 1.76663 44.1151 1.1875C42.366 0.530893 40.5181 0.175853 38.6501 0.1375C36.2451 0.0300002 35.4826 0 29.3776 0C23.2726 0 22.4901 1.67638e-07 20.1026 0.1375C18.2355 0.176135 16.3885 0.53117 14.6401 1.1875C13.1453 1.76622 11.7877 2.65061 10.6542 3.78408C9.52073 4.91755 8.63634 6.27515 8.05762 7.77C7.39969 9.51783 7.04543 11.3653 7.01012 13.2325C6.90262 15.64 6.87012 16.4025 6.87012 22.5075C6.87012 28.6125 6.87012 29.3925 7.01012 31.7825C7.04762 33.6525 7.40012 35.4975 8.05762 37.25C8.63731 38.7444 9.52236 40.1014 10.6562 41.2344C11.7901 42.3674 13.1478 43.2514 14.6426 43.83C16.3862 44.513 18.2335 44.8934 20.1051 44.955C22.5126 45.0625 23.2751 45.095 29.3801 45.095C35.4851 45.095 36.2676 45.095 38.6551 44.955C40.523 44.9182 42.371 44.564 44.1201 43.9075C45.6143 43.3277 46.9714 42.4429 48.1047 41.3096C49.2381 40.1763 50.1228 38.8192 50.7026 37.325C51.3601 35.575 51.7126 33.73 51.7501 31.8575C51.8576 29.4525 51.8901 28.69 51.8901 22.5825C51.8851 16.4775 51.8851 15.7025 51.7451 13.31ZM29.3626 34.0525C22.9776 34.0525 17.8051 28.88 17.8051 22.495C17.8051 16.11 22.9776 10.9375 29.3626 10.9375C32.4279 10.9375 35.3676 12.1552 37.535 14.3226C39.7025 16.4901 40.9201 19.4298 40.9201 22.495C40.9201 25.5602 39.7025 28.4999 37.535 30.6674C35.3676 32.8348 32.4279 34.0525 29.3626 34.0525ZM41.3801 13.205C41.0261 13.2053 40.6755 13.1358 40.3484 13.0005C40.0213 12.8652 39.7241 12.6667 39.4737 12.4164C39.2234 12.1661 39.0249 11.8688 38.8896 11.5417C38.7543 11.2146 38.6848 10.864 38.6851 10.51C38.6851 10.1563 38.7548 9.80597 38.8902 9.47915C39.0255 9.15233 39.224 8.85537 39.4741 8.60523C39.7242 8.35509 40.0212 8.15667 40.348 8.0213C40.6748 7.88593 41.0251 7.81625 41.3789 7.81625C41.7326 7.81625 42.0829 7.88593 42.4097 8.0213C42.7365 8.15667 43.0335 8.35509 43.2836 8.60523C43.5338 8.85537 43.7322 9.15233 43.8676 9.47915C44.0029 9.80597 44.0726 10.1563 44.0726 10.51C44.0726 12 42.8676 13.205 41.3801 13.205Z" fill="#D1D1EA"/>
</g>
<path d="M29.3626 30.0025C33.5089 30.0025 36.8701 26.6413 36.8701 22.495C36.8701 18.3488 33.5089 14.9875 29.3626 14.9875C25.2163 14.9875 21.8551 18.3488 21.8551 22.495C21.8551 26.6413 25.2163 30.0025 29.3626 30.0025Z" fill="#D1D1EA"/>
<defs>
<filter id="filter0_d_461_159" x="0.870117" y="0" width="57.02" height="61.095" filterUnits="userSpaceOnUse" color-interpolation-filters="sRGB">
<feFlood flood-opacity="0" result="BackgroundImageFix"/>
<feColorMatrix in="SourceAlpha" type="matrix" values="0 0 0 0 0 0 0 0 0 0 0 0 0 0 0 0 0 0 127 0" result="hardAlpha"/>
<feOffset dy="10"/>
<feGaussianBlur stdDeviation="3"/>
<feComposite in2="hardAlpha" operator="out"/>
<feColorMatrix type="matrix" values="0 0 0 0 0 0 0 0 0 0 0 0 0 0 0 0 0 0 0.25 0"/>
<feBlend mode="normal" in2="BackgroundImageFix" result="effect1_dropShadow_461_159"/>
<feBlend mode="normal" in="SourceGraphic" in2="effect1_dropShadow_461_159" result="shape"/>
</filter>
</defs>
</svg>
