<svg width="58" height="61" viewBox="0 0 58 61" fill="none" xmlns="http://www.w3.org/2000/svg">
<g filter="url(#filter0_d_461_162)">
<path d="M49.3701 0H9.37012C8.70708 0 8.07119 0.263392 7.60235 0.732233C7.13351 1.20107 6.87012 1.83696 6.87012 2.5V42.5C6.87012 43.163 7.13351 43.7989 7.60235 44.2678C8.07119 44.7366 8.70708 45 9.37012 45H49.3701C50.0332 45 50.669 44.7366 51.1379 44.2678C51.6067 43.7989 51.8701 43.163 51.8701 42.5V2.5C51.8701 1.83696 51.6067 1.20107 51.1379 0.732233C50.669 0.263392 50.0332 0 49.3701 0ZM20.2176 38.3425H13.5376V16.8675H20.2176V38.3425ZM16.8776 13.935C15.8512 13.935 14.8669 13.5273 14.1411 12.8015C13.4153 12.0757 13.0076 11.0914 13.0076 10.065C13.0076 9.03861 13.4153 8.05426 14.1411 7.3285C14.8669 6.60273 15.8512 6.195 16.8776 6.195C17.904 6.195 18.8884 6.60273 19.6141 7.3285C20.3399 8.05426 20.7476 9.03861 20.7476 10.065C20.7476 11.0914 20.3399 12.0757 19.6141 12.8015C18.8884 13.5273 17.904 13.935 16.8776 13.935ZM45.2151 38.3425H38.5426V27.9C38.5426 25.41 38.4976 22.2075 35.0726 22.2075C31.5976 22.2075 31.0701 24.9225 31.0701 27.725V38.345H24.4026V16.87H30.8026V19.805H30.8951C31.7826 18.1175 33.9626 16.3375 37.2051 16.3375C43.9651 16.3375 45.2126 20.7825 45.2126 26.5675V38.3425H45.2151Z" fill="#D1D1EA"/>
</g>
<defs>
<filter id="filter0_d_461_162" x="0.870117" y="0" width="57" height="61" filterUnits="userSpaceOnUse" color-interpolation-filters="sRGB">
<feFlood flood-opacity="0" result="BackgroundImageFix"/>
<feColorMatrix in="SourceAlpha" type="matrix" values="0 0 0 0 0 0 0 0 0 0 0 0 0 0 0 0 0 0 127 0" result="hardAlpha"/>
<feOffset dy="10"/>
<feGaussianBlur stdDeviation="3"/>
<feComposite in2="hardAlpha" operator="out"/>
<feColorMatrix type="matrix" values="0 0 0 0 0 0 0 0 0 0 0 0 0 0 0 0 0 0 0.25 0"/>
<feBlend mode="normal" in2="BackgroundImageFix" result="effect1_dropShadow_461_162"/>
<feBlend mode="normal" in="SourceGraphic" in2="effect1_dropShadow_461_162" result="shape"/>
</filter>
</defs>
</svg>
