<svg width="333" height="220" viewBox="0 0 333 220" fill="none" xmlns="http://www.w3.org/2000/svg">
<path d="M0 9.60942V209.77C0.00212464 212.321 1.06955 214.767 2.96793 216.571C4.86631 218.374 7.44045 219.389 10.1252 219.391H322.319C325.003 219.389 327.578 218.374 329.476 216.571C331.374 214.767 332.442 212.321 332.444 209.771V9.60942C332.438 7.06087 331.368 4.61859 329.471 2.81748C327.573 1.01637 325.001 0.0032347 322.319 0H10.1252C7.44279 0.0032531 4.87108 1.01639 2.97331 2.8175C1.07553 4.6186 0.00638312 7.06087 0 9.60942Z" fill="#2F2D61"/>
<path d="M11.6442 13.4253V205.851C11.6466 207.195 12.201 208.483 13.1858 209.433C14.1706 210.383 15.5056 210.917 16.8983 210.92H314.963C316.356 210.917 317.691 210.383 318.676 209.433C319.661 208.483 320.215 207.195 320.217 205.851V13.4253C320.217 12.0801 319.664 10.79 318.679 9.83786C317.694 8.88573 316.358 8.34936 314.963 8.34644H16.8983C15.5039 8.34937 14.1676 8.88573 13.1826 9.83786C12.1976 10.79 11.6444 12.0801 11.6442 13.4253Z" fill="#D1D1EA"/>
<path d="M233.833 124.91C233.8 141.154 227.469 156.799 216.084 168.768C204.7 180.738 189.086 188.166 172.311 189.593C155.537 191.02 138.815 186.343 125.435 176.48C112.054 166.617 102.982 152.283 100.002 136.296C97.0225 120.308 100.35 103.824 109.331 90.0827C118.313 76.3418 132.297 66.3388 148.537 62.0401C164.776 57.7414 182.095 59.458 197.089 66.8524C212.082 74.2469 223.666 86.7842 229.563 102C229.71 102.382 229.853 102.764 229.993 103.15V103.153C230.615 104.849 231.164 106.576 231.638 108.335C233.1 113.747 233.838 119.317 233.833 124.91Z" fill="#2F2D61"/>
<path d="M158.502 80.718C155.45 79.1262 152.062 78.2277 148.596 78.0909C145.13 77.9541 141.677 78.5827 138.501 79.9287C135.704 81.1027 132.76 83.2087 131.827 87.0117C135.6 84.8637 140.484 88.2575 141.455 93.7018L141.228 93.7621C140.716 97.533 141.86 101.638 144.077 103.977C144.241 102.922 144.648 101.915 145.266 101.031C145.884 100.146 146.699 99.4053 147.651 98.8624C149.28 97.8298 151.081 97.0798 152.324 95.3049C153.798 93.2007 154.172 90.1256 154.757 87.3203C155.342 84.5149 156.453 81.4997 158.502 80.718Z" fill="#D1D1EA"/>
<path d="M137.382 112.807C136.337 114.321 134.941 115.271 133.689 116.453C132.243 117.722 131.294 119.432 131.003 121.297C130.844 122.614 131.09 123.953 131.056 125.285C131.022 126.617 130.561 128.116 129.622 128.447C128.139 128.964 127.008 126.307 125.484 126.122C124.273 125.976 123.183 127.814 123.534 129.408C123.884 131.002 125.533 131.708 126.48 130.667C127.336 132.053 126.732 134.568 125.446 134.994C125.31 135.867 125.175 136.737 125.042 137.61C121.791 135.416 118.505 133.185 115.74 129.972C112.665 126.428 110.757 122.08 110.262 117.483C109.904 113.79 110.436 109.565 108.678 106.723C107.271 104.449 104.857 103.946 102.684 104.088C102.288 104.114 101.888 104.157 101.492 104.205C102.773 100.492 104.401 96.8991 106.354 93.4699C106.796 93.2868 107.207 93.0402 107.573 92.7384C109.595 91.0828 110.493 87.7313 112.133 85.4133C112.239 85.2641 112.349 85.1185 112.462 84.9766C114.14 82.8624 116.389 81.7744 118.562 80.7627C123.371 78.5103 128.321 76.2287 133.398 76.5416L131.953 76.6763C130.267 81.2322 128.58 85.7881 126.891 90.344C126.634 91.0427 126.375 91.7425 126.114 92.4437C125.156 95.0345 124.167 97.7929 124.314 100.693C124.401 102.411 125.02 104.245 126.197 104.834C127.295 105.38 128.494 104.71 129.554 104.048C130.003 103.772 130.448 103.495 130.897 103.215C132.508 102.214 134.292 101.188 135.994 101.858C137.552 102.469 138.702 104.51 138.921 106.712C139.122 108.852 138.58 110.996 137.382 112.807Z" fill="#D1D1EA"/>
<path d="M146.962 143.912C142.258 141.117 137.553 138.323 132.849 135.529L132.928 135.331C130.003 136.405 128.789 141.421 129.272 145.523C129.756 149.624 131.395 153.291 132.223 157.287C133.339 162.756 132.918 168.414 131.002 173.673C137.189 166.977 142.663 159.7 147.344 151.951C147.998 150.974 148.497 149.908 148.823 148.789C149.168 147.596 149.045 146.322 148.477 145.212C148.092 144.664 147.571 144.217 146.962 143.912Z" fill="#D1D1EA"/>
<path d="M128.395 93.0777C127.843 94.2219 127.757 95.5249 128.157 96.727C128.621 97.6954 129.463 98.4477 130.499 98.8201L133.099 100.063C133.964 100.476 134.896 100.894 135.777 100.554C136.841 100.144 137.578 98.5356 137.387 97.0428C137.184 95.4542 136.146 94.3615 135.186 93.431C133.843 92.1288 132.499 90.8266 131.156 89.5244L130.399 90.419C129.58 91.1895 128.902 92.0885 128.395 93.0777Z" fill="#D1D1EA"/>
<path d="M219.898 110.06C221.068 110.326 222.237 110.591 223.406 110.857C223.203 114.667 221.245 118.193 218.619 119.47C217.525 120.001 216.307 120.198 215.401 121.191C214.583 122.094 214.168 123.498 213.787 124.841C213.119 127.185 212.451 129.528 211.784 131.872C211.067 134.397 210.147 137.203 208.283 138.112C206.684 138.895 204.854 137.938 203.624 136.333C202.394 134.728 201.644 132.57 200.916 130.467C200.961 132.759 199.856 135.008 198.29 135.805C196.721 136.602 194.812 135.882 193.763 134.102C193.009 132.825 192.696 131.14 191.956 129.845C191.217 128.549 189.667 127.807 188.859 129.022C188.327 129.83 188.395 131.067 188.131 132.094C187.998 132.775 187.649 133.399 187.131 133.88C186.613 134.361 185.952 134.674 185.242 134.775C184.588 134.761 183.944 134.618 183.349 134.356C182.755 134.094 182.222 133.718 181.782 133.251C179.472 130.971 177.968 128.046 177.486 124.892C177.158 123.38 177.2 121.816 177.606 120.322C178.07 118.906 179.191 117.814 180.304 118.084C181.035 116.592 179.591 114.612 178.289 114.787C176.984 114.962 175.962 116.312 174.89 117.349C173.823 118.386 172.329 119.139 171.254 118.109C171.266 118.305 171.237 118.501 171.167 118.686C171.097 118.87 170.988 119.038 170.847 119.18C170.707 119.322 170.537 119.434 170.349 119.51C170.161 119.585 169.96 119.623 169.756 119.619C169.041 119.421 168.377 119.082 167.806 118.622C165.342 117.141 162.215 118.124 160.465 120.926C161.559 116.435 163.162 111.283 166.523 110.227C167.896 109.794 169.394 110.151 170.692 109.401C172.989 108.073 173.453 103.055 171.469 100.984C171.721 102.942 171.672 105.227 170.601 106.567C169.53 107.906 167.281 107.032 167.417 105.053C167.387 105.331 167.266 105.593 167.071 105.801C166.877 106.009 166.62 106.153 166.336 106.211C166.052 106.269 165.756 106.239 165.491 106.125C165.226 106.011 165.005 105.819 164.86 105.577C164.147 104.529 164.207 102.815 164.712 101.563C165.234 100.429 165.981 99.4055 166.912 98.5501C168.704 96.6979 170.522 94.8238 172.597 93.6593C174.675 92.4949 177.074 92.1019 179.157 93.2591C180.255 93.8704 181.22 94.8893 182.341 95.4279C182.609 95.5885 182.908 95.6955 183.22 95.7426C183.532 95.7897 183.851 95.7758 184.158 95.7018C184.464 95.6278 184.752 95.4952 185.004 95.3119C185.256 95.1286 185.468 94.8982 185.626 94.6346C186.46 93.2227 186.068 91.1266 186.377 89.3618C186.932 86.2433 190.164 84.784 191.956 86.8437C190.617 86.5125 189.233 88.0409 189.067 89.8931C188.897 91.7453 189.867 93.6157 191.164 94.1761C193.345 95.1077 195.48 92.7642 197.128 90.5954C198.848 88.3247 200.571 86.0552 202.296 83.787C202.572 83.4008 202.881 83.038 203.221 82.7026C203.761 82.1946 204.481 81.9036 205.236 81.8888C205.99 81.8739 206.722 82.1362 207.283 82.6226C209.026 83.9944 209.845 86.8073 211.275 88.7432C213.349 91.5561 216.454 92.2402 219.344 92.786C221.498 93.1899 223.653 93.5963 225.809 94.005C227.247 96.5848 228.501 99.2559 229.563 102C225.608 103.739 222.254 106.537 219.898 110.06Z" fill="#D1D1EA"/>
<path d="M231.638 108.335C231.196 109.592 230.954 110.906 230.921 112.232C229.072 110.056 228.778 105.977 229.993 103.153C230.615 104.849 231.164 106.576 231.638 108.335Z" fill="#D1D1EA"/>
<path d="M226.862 153.843C225.246 157.009 223.366 160.043 221.241 162.915C219.883 162.355 218.423 163.355 217.152 164.294C215.824 165.277 214.228 166.234 212.866 165.338C211.474 164.421 211.026 161.856 211.467 159.822C211.974 157.945 212.861 156.184 214.077 154.64C215.209 153.01 216.42 151.318 217.993 150.685C219.57 150.051 221.596 150.947 222.056 153.108L223.172 153.072C222.546 152.242 222.874 150.524 223.716 150.222C224.685 149.869 225.526 151.154 226.1 152.289C226.356 152.802 226.617 153.319 226.862 153.843Z" fill="#D1D1EA"/>
<path d="M184.096 138.473C181.696 138.618 179.795 135.768 178.532 132.964C177.269 130.161 176.116 126.954 173.95 125.527C172.713 124.711 171.302 124.6 169.96 124.204C169.199 124.019 168.494 123.661 167.905 123.161C167.316 122.66 166.858 122.031 166.571 121.326L165.049 120.733C162.919 121.76 160.969 123.101 159.268 124.709C157.325 126.7 156.115 129.252 155.824 131.973C155.533 134.912 156.607 138.19 158.614 139.294C160.199 140.167 162.046 139.617 163.652 140.416C165.658 141.414 166.85 144.313 167.301 147.176C167.752 150.038 167.637 153.013 167.96 155.908C168.283 158.803 169.172 161.815 171.012 163.299C173.315 165.156 176.694 163.613 177.727 160.233C178.234 158.576 178.217 156.705 178.596 154.984C179.263 151.954 181.065 149.706 182.493 147.22C183.922 144.734 185.047 141.358 184.096 138.473Z" fill="#D1D1EA"/>
<path d="M160.38 108.695C160.604 108.894 160.813 109.108 161.005 109.335C161.204 109.666 161.306 110.043 161.299 110.426C161.292 110.809 161.177 111.182 160.967 111.507C161.256 111.491 161.538 111.417 161.796 111.291C162.054 111.164 162.283 110.987 162.466 110.771C162.904 110.29 163.29 109.766 163.616 109.209C163.77 109.018 163.879 108.798 163.938 108.563C163.996 108.328 164.002 108.083 163.955 107.846C163.842 107.534 163.574 107.401 163.386 107.166C163.125 106.707 162.947 106.209 162.86 105.692C162.756 105.208 162.513 104.762 162.161 104.403C161.808 104.044 161.359 103.788 160.863 103.662L160.983 103.684C160.778 103.801 160.617 103.978 160.521 104.188C160.425 104.398 160.4 104.632 160.449 104.857C160.522 105.311 160.824 105.688 160.794 106.151C160.751 106.817 160.061 107.129 160.018 107.795C160.011 108.129 160.141 108.453 160.38 108.695Z" fill="#D1D1EA"/>
<path d="M156.268 97.378L156.278 97.376C156.352 97.3111 156.421 97.2407 156.483 97.1655L156.268 97.378Z" fill="#D1D1EA"/>
<path d="M156.988 100.504C157.276 100.26 157.489 99.9441 157.604 99.5912C157.719 99.2382 157.731 98.8616 157.639 98.5024C157.465 97.7452 156.848 97.2361 156.279 97.3759C156.113 97.5374 155.909 97.6557 155.683 97.7198C155.457 97.7839 155.219 97.7915 154.989 97.7421C154.637 97.6547 154.251 97.4297 153.946 97.6854C153.771 97.8764 153.649 98.1066 153.59 98.3548C153.477 98.6894 153.364 99.0239 153.251 99.3584C153.198 99.4781 153.184 99.6109 153.211 99.7386C153.233 99.7898 153.268 99.8348 153.313 99.8692C153.358 99.9036 153.411 99.9262 153.467 99.935C154.145 100.128 154.823 100.321 155.501 100.513C155.734 100.617 155.988 100.67 156.245 100.668C156.502 100.667 156.756 100.611 156.988 100.504Z" fill="#D1D1EA"/>
<path d="M208.156 143.661C207.843 143.166 207.53 142.672 207.216 142.177C206.909 141.604 206.488 141.094 205.978 140.677C205.866 140.586 205.736 140.518 205.596 140.476C205.456 140.435 205.309 140.421 205.164 140.435C205.018 140.449 204.877 140.491 204.748 140.558C204.62 140.626 204.507 140.717 204.415 140.828L204.453 141.11C205.292 141.978 205.864 143.054 206.104 144.217C206.176 144.723 206.151 145.246 206.214 145.754C206.22 145.99 206.275 146.222 206.374 146.437C206.474 146.652 206.617 146.846 206.794 147.008C207.287 147.326 207.867 146.857 208.218 146.285C208.532 145.815 208.673 145.257 208.618 144.701C208.539 144.327 208.382 143.974 208.156 143.661Z" fill="#D1D1EA"/>
<path d="M213.071 144.305C213.131 143.842 213.092 143.372 212.957 142.923C212.934 142.317 213.101 141.718 213.435 141.204C213.767 140.719 214.019 140.187 214.181 139.628C214.249 139.373 214.236 139.104 214.145 138.856C214.041 138.631 213.79 138.528 213.646 138.706L213.954 138.898C213.538 138.826 213.11 138.846 212.703 138.956C212.47 139.042 212.263 139.181 212.098 139.36C211.933 139.54 211.815 139.755 211.754 139.988C211.703 140.35 211.62 140.708 211.506 141.058C211.322 141.422 210.966 141.544 210.742 141.864C210.589 142.147 210.512 142.463 210.518 142.783C210.523 143.103 210.611 143.416 210.773 143.695C211.054 144.151 211.501 144.489 212.027 144.645C212.403 144.776 212.899 144.783 213.071 144.305Z" fill="#D1D1EA"/>
<path d="M221.824 146.853C221.96 147.194 222.142 147.517 222.366 147.813C222.785 148.22 223.355 147.97 223.863 147.871C224.324 147.8 224.797 147.852 225.23 148.02C225.664 148.187 226.042 148.465 226.325 148.823C226.128 147.875 225.698 146.986 225.071 146.231C224.444 145.476 223.638 144.878 222.721 144.486C221.53 144.088 220.275 143.899 219.014 143.927L218.799 143.98C219.348 145.52 221.07 145.486 221.824 146.853Z" fill="#D1D1EA"/>
<path d="M184.753 150.002L184.756 150.008L184.818 149.893L184.753 150.002Z" fill="#D1D1EA"/>
<path d="M183.425 152.482C183.136 152.989 182.887 153.517 182.68 154.061C182.407 154.941 182.226 155.846 182.14 156.762C182.073 157.282 182.052 157.947 182.39 158.201C182.487 158.263 182.604 158.289 182.72 158.274C182.835 158.258 182.941 158.203 183.018 158.118C183.205 157.927 183.359 157.706 183.472 157.466C184.137 156.362 184.653 155.181 185.008 153.951C185.378 152.647 185.29 151.261 184.756 150.01C184.313 150.834 183.869 151.658 183.425 152.482Z" fill="#D1D1EA"/>
<path d="M170.616 86.43C170.826 86.6289 171.093 86.7639 171.383 86.8184C171.672 86.8729 171.972 86.8445 172.245 86.7368C172.81 86.4984 173.329 86.168 173.778 85.76C174.15 85.4946 174.465 85.1626 174.707 84.7821C174.84 84.5548 174.926 84.3043 174.958 84.045C174.991 83.7858 174.97 83.5228 174.897 83.2714C174.793 83.0304 174.627 82.819 174.415 82.6571C174.203 82.4952 173.951 82.3882 173.685 82.3461C172.932 82.1309 172.18 81.9157 171.428 81.7005L171.972 81.2273C171.412 80.9375 170.792 81.4755 170.442 82.1415C170.218 82.5764 170.061 83.041 169.978 83.5201C169.859 84.0207 169.854 84.5403 169.965 85.0428C170.075 85.5453 170.297 86.0187 170.616 86.43Z" fill="#D1D1EA"/>
<path d="M183.898 82.1285C184.11 82.354 184.403 82.4932 184.718 82.5179C185.032 82.5426 185.345 82.4509 185.592 82.2614C185.804 82.1074 185.981 81.9118 186.11 81.6876C186.239 81.4633 186.318 81.2153 186.341 80.9597C186.394 80.3889 186.102 79.7544 185.684 79.7052L185.779 79.1707C184.974 79.0304 183.984 79.0024 183.552 79.9454C183.407 80.3066 183.362 80.6984 183.423 81.0815C183.483 81.4646 183.647 81.8256 183.898 82.1285Z" fill="#D1D1EA"/>
<path d="M303.946 43.1821H27.9161C27.727 43.1781 27.547 43.1028 27.4146 42.9723C27.2823 42.8419 27.2083 42.6666 27.2083 42.4841C27.2083 42.3016 27.2823 42.1264 27.4146 41.9959C27.547 41.8654 27.727 41.7901 27.9161 41.7861H303.946C304.135 41.7901 304.315 41.8654 304.447 41.9959C304.58 42.1264 304.654 42.3016 304.654 42.4841C304.654 42.6666 304.58 42.8419 304.447 42.9723C304.315 43.1028 304.135 43.1781 303.946 43.1821Z" fill="#CACACA"/>
<path d="M43.8477 33.4102C48.1478 33.4102 51.6337 29.9727 51.6337 25.7322C51.6337 21.4918 48.1478 18.0542 43.8477 18.0542C39.5476 18.0542 36.0616 21.4918 36.0616 25.7322C36.0616 29.9727 39.5476 33.4102 43.8477 33.4102Z" fill="#2F2D61"/>
<path d="M70.7449 33.4102C75.0451 33.4102 78.531 29.9727 78.531 25.7322C78.531 21.4918 75.0451 18.0542 70.7449 18.0542C66.4448 18.0542 62.9589 21.4918 62.9589 25.7322C62.9589 29.9727 66.4448 33.4102 70.7449 33.4102Z" fill="#2F2D61"/>
<path d="M97.6421 33.4102C101.942 33.4102 105.428 29.9727 105.428 25.7322C105.428 21.4918 101.942 18.0542 97.6421 18.0542C93.342 18.0542 89.856 21.4918 89.856 25.7322C89.856 29.9727 93.342 33.4102 97.6421 33.4102Z" fill="#2F2D61"/>
<path d="M287.827 19.957H268.721C268.342 19.9643 267.982 20.1145 267.716 20.3754C267.451 20.6363 267.303 20.9872 267.303 21.3526C267.303 21.718 267.451 22.0688 267.716 22.3297C267.982 22.5906 268.342 22.7408 268.721 22.7481H287.827C288.206 22.7408 288.567 22.5906 288.832 22.3297C289.097 22.0688 289.246 21.718 289.246 21.3526C289.246 20.9872 289.097 20.6363 288.832 20.3754C288.567 20.1145 288.206 19.9643 287.827 19.957Z" fill="#2F2D61"/>
<path d="M287.827 25.1956H268.721C268.342 25.2028 267.982 25.353 267.716 25.614C267.451 25.8749 267.303 26.2257 267.303 26.5911C267.303 26.9565 267.451 27.3073 267.716 27.5682C267.982 27.8292 268.342 27.9794 268.721 27.9866H287.827C288.206 27.9794 288.567 27.8292 288.832 27.5682C289.097 27.3073 289.246 26.9565 289.246 26.5911C289.246 26.2257 289.097 25.8749 288.832 25.614C288.567 25.353 288.206 25.2028 287.827 25.1956Z" fill="#2F2D61"/>
<path d="M287.827 30.427H268.721C268.342 30.4343 267.982 30.5845 267.716 30.8454C267.451 31.1063 267.303 31.4571 267.303 31.8225C267.303 32.1879 267.451 32.5388 267.716 32.7997C267.982 33.0606 268.342 33.2108 268.721 33.2181H287.827C288.206 33.2108 288.567 33.0606 288.832 32.7997C289.097 32.5388 289.246 32.1879 289.246 31.8225C289.246 31.4571 289.097 31.1063 288.832 30.8454C288.567 30.5845 288.206 30.4343 287.827 30.427Z" fill="#2F2D61"/>
</svg>
