<svg width="594" height="392" viewBox="0 0 594 392" fill="none" xmlns="http://www.w3.org/2000/svg">
<path d="M0 17.1698V374.811C0.00379623 379.369 1.91105 383.739 5.303 386.961C8.69496 390.184 13.2944 391.996 18.0913 392H575.909C580.706 391.996 585.305 390.184 588.697 386.962C592.089 383.739 593.996 379.369 594 374.811V17.1698C593.989 12.6161 592.078 8.25234 588.687 5.03418C585.297 1.81601 580.701 0.00577966 575.909 0H18.0913C13.2985 0.00581254 8.70349 1.81605 5.31261 5.03421C1.92172 8.25237 0.0114052 12.6161 0 17.1698Z" fill="#2F2D61"/>
<path d="M20.8056 23.9878V367.809C20.8099 370.209 21.8004 372.51 23.56 374.208C25.3197 375.905 27.705 376.86 30.1935 376.864H562.766C565.255 376.86 567.64 375.905 569.4 374.208C571.16 372.51 572.15 370.209 572.154 367.809V23.9878C572.154 21.5844 571.166 19.2792 569.406 17.5779C567.646 15.8767 565.258 14.9183 562.766 14.9131H30.1935C27.702 14.9183 25.3143 15.8767 23.5543 17.5779C21.7944 19.2792 20.8059 21.5844 20.8056 23.9878Z" fill="#D1D1EA"/>
<path d="M417.806 223.185C417.747 252.21 406.434 280.163 386.093 301.549C365.751 322.936 337.852 336.209 307.88 338.758C277.908 341.308 248.031 332.951 224.123 315.329C200.215 297.706 184.005 272.095 178.681 243.529C173.357 214.962 179.303 185.508 195.35 160.957C211.397 136.405 236.385 118.532 265.401 110.851C294.416 103.17 325.361 106.237 352.152 119.449C378.942 132.662 399.64 155.063 410.176 182.25C410.438 182.932 410.695 183.615 410.944 184.304V184.311C412.056 187.34 413.036 190.427 413.883 193.569C416.496 203.239 417.814 213.192 417.806 223.185Z" fill="#2F2D61"/>
<path d="M283.206 144.224C277.754 141.38 271.7 139.774 265.507 139.53C259.313 139.286 253.144 140.409 247.469 142.814C242.472 144.911 237.211 148.674 235.544 155.469C242.286 151.632 251.013 157.695 252.747 167.423L252.342 167.531C251.426 174.269 253.471 181.604 257.431 185.782C257.726 183.897 258.452 182.099 259.557 180.518C260.662 178.937 262.118 177.614 263.819 176.644C266.728 174.799 269.947 173.459 272.168 170.287C274.801 166.528 275.469 161.033 276.515 156.021C277.561 151.008 279.545 145.621 283.206 144.224Z" fill="#D1D1EA"/>
<path d="M245.469 201.56C243.602 204.265 241.108 205.962 238.871 208.075C236.287 210.342 234.593 213.398 234.072 216.729C233.788 219.083 234.227 221.475 234.166 223.855C234.105 226.235 233.283 228.914 231.605 229.505C228.956 230.429 226.934 225.682 224.211 225.351C222.047 225.091 220.099 228.374 220.726 231.222C221.353 234.07 224.298 235.331 225.99 233.471C227.52 235.949 226.442 240.442 224.143 241.202C223.9 242.763 223.658 244.317 223.422 245.877C217.612 241.956 211.741 237.971 206.8 232.23C201.306 225.899 197.897 218.128 197.013 209.915C196.373 203.316 197.323 195.767 194.183 190.689C191.668 186.625 187.355 185.728 183.472 185.982C182.764 186.027 182.05 186.105 181.342 186.19C183.632 179.556 186.54 173.136 190.03 167.009C190.82 166.682 191.554 166.241 192.207 165.702C195.82 162.744 197.425 156.756 200.357 152.614C200.545 152.347 200.741 152.087 200.943 151.834C203.942 148.056 207.96 146.112 211.842 144.304C220.436 140.28 229.279 136.203 238.352 136.762L235.77 137.003C232.757 145.143 229.742 153.284 226.725 161.424C226.266 162.672 225.803 163.923 225.336 165.176C223.624 169.805 221.858 174.733 222.121 179.915C222.276 182.984 223.381 186.261 225.485 187.315C227.446 188.29 229.589 187.093 231.483 185.91C232.285 185.416 233.081 184.922 233.883 184.421C236.761 182.633 239.949 180.8 242.989 181.996C245.773 183.088 247.829 186.736 248.219 190.67C248.578 194.493 247.611 198.324 245.469 201.56Z" fill="#D1D1EA"/>
<path d="M262.587 257.136C254.181 252.144 245.775 247.152 237.369 242.159L237.512 241.805C232.286 243.725 230.116 252.686 230.98 260.015C231.843 267.344 234.772 273.895 236.252 281.036C238.247 290.808 237.494 300.917 234.071 310.313C245.124 298.349 254.906 285.347 263.27 271.501C264.438 269.756 265.329 267.852 265.911 265.852C266.528 263.72 266.308 261.444 265.294 259.459C264.606 258.48 263.675 257.682 262.587 257.136Z" fill="#D1D1EA"/>
<path d="M229.412 166.308C228.425 168.353 228.273 170.681 228.986 172.829C229.816 174.559 231.32 175.903 233.172 176.568L237.817 178.789C239.362 179.528 241.027 180.274 242.603 179.666C244.502 178.933 245.82 176.06 245.479 173.393C245.116 170.554 243.262 168.602 241.546 166.939C239.146 164.613 236.745 162.286 234.345 159.959L232.992 161.558C231.529 162.934 230.318 164.541 229.412 166.308Z" fill="#D1D1EA"/>
<path d="M392.907 196.651C394.996 197.126 397.086 197.6 399.175 198.075C398.811 204.883 395.313 211.183 390.622 213.465C388.667 214.414 386.49 214.765 384.872 216.541C383.41 218.153 382.668 220.663 381.988 223.062C380.795 227.249 379.601 231.436 378.408 235.624C377.128 240.136 375.483 245.149 372.153 246.774C369.296 248.172 366.027 246.462 363.829 243.595C361.632 240.728 360.291 236.872 358.99 233.114C359.071 237.21 357.096 241.228 354.298 242.652C351.494 244.076 348.084 242.789 346.21 239.609C344.862 237.327 344.303 234.317 342.981 232.002C341.66 229.687 338.89 228.361 337.448 230.533C336.497 231.976 336.618 234.187 336.147 236.02C335.909 237.238 335.284 238.353 334.359 239.212C333.434 240.071 332.254 240.63 330.984 240.812C329.816 240.786 328.665 240.531 327.603 240.063C326.54 239.595 325.588 238.923 324.803 238.088C320.675 234.015 317.988 228.788 317.126 223.153C316.541 220.451 316.615 217.656 317.341 214.987C318.17 212.457 320.172 210.507 322.161 210.988C323.468 208.322 320.887 204.785 318.561 205.097C316.229 205.409 314.403 207.821 312.488 209.675C310.581 211.528 307.912 212.873 305.991 211.033C306.013 211.383 305.96 211.734 305.835 212.064C305.71 212.393 305.516 212.694 305.264 212.947C305.013 213.201 304.71 213.401 304.375 213.536C304.039 213.671 303.678 213.738 303.315 213.732C302.037 213.378 300.851 212.771 299.83 211.95C295.429 209.304 289.841 211.06 286.713 216.066C288.668 208.043 291.533 198.836 297.538 196.95C299.992 196.177 302.668 196.814 304.986 195.474C309.091 193.101 309.92 184.135 306.375 180.436C306.826 183.934 306.739 188.017 304.825 190.409C302.91 192.802 298.893 191.242 299.136 187.705C299.081 188.202 298.865 188.67 298.518 189.042C298.171 189.414 297.71 189.67 297.203 189.774C296.696 189.878 296.168 189.824 295.694 189.62C295.22 189.417 294.825 189.074 294.566 188.641C293.292 186.768 293.4 183.706 294.303 181.469C295.234 179.444 296.569 177.614 298.233 176.086C301.434 172.776 304.683 169.428 308.39 167.347C312.104 165.267 316.391 164.564 320.112 166.632C322.073 167.724 323.799 169.545 325.8 170.507C326.28 170.794 326.814 170.985 327.372 171.07C327.93 171.154 328.499 171.129 329.047 170.997C329.594 170.865 330.109 170.628 330.56 170.3C331.01 169.972 331.388 169.561 331.671 169.09C333.161 166.567 332.46 162.822 333.013 159.669C334.003 154.096 339.78 151.489 342.981 155.169C340.589 154.578 338.115 157.308 337.818 160.618C337.515 163.927 339.247 167.269 341.566 168.271C345.462 169.935 349.277 165.748 352.222 161.873C355.296 157.816 358.374 153.761 361.457 149.708C361.949 149.018 362.501 148.369 363.108 147.77C364.073 146.862 365.36 146.343 366.708 146.316C368.056 146.289 369.364 146.758 370.367 147.627C373.481 150.078 374.944 155.104 377.499 158.563C381.206 163.589 386.753 164.812 391.916 165.787C395.765 166.509 399.616 167.235 403.469 167.965C406.038 172.574 408.278 177.347 410.176 182.25C403.11 185.358 397.116 190.356 392.907 196.651Z" fill="#D1D1EA"/>
<path d="M413.883 193.569C413.093 195.815 412.661 198.163 412.602 200.533C409.299 196.645 408.773 189.356 410.944 184.311C412.056 187.341 413.036 190.427 413.883 193.569Z" fill="#D1D1EA"/>
<path d="M405.349 274.882C402.462 280.538 399.103 285.959 395.306 291.091C392.88 290.09 390.271 291.878 388 293.556C385.627 295.311 382.776 297.021 380.343 295.422C377.856 293.783 377.054 289.199 377.842 285.565C378.749 282.212 380.334 279.065 382.506 276.306C384.529 273.393 386.692 270.37 389.503 269.239C392.32 268.107 395.94 269.707 396.762 273.569L398.757 273.504C397.638 272.021 398.225 268.952 399.728 268.413C401.46 267.782 402.963 270.077 403.988 272.106C404.446 273.023 404.911 273.946 405.349 274.882Z" fill="#D1D1EA"/>
<path d="M328.938 247.419C324.649 247.679 321.252 242.586 318.995 237.576C316.738 232.567 314.678 226.837 310.809 224.287C308.598 222.83 306.077 222.63 303.679 221.924C302.319 221.593 301.06 220.953 300.007 220.059C298.954 219.165 298.137 218.041 297.624 216.782L294.904 215.722C291.099 217.557 287.614 219.954 284.576 222.826C281.104 226.384 278.941 230.944 278.421 235.804C277.902 241.057 279.821 246.914 283.406 248.887C286.239 250.446 289.538 249.463 292.407 250.89C295.993 252.674 298.122 257.854 298.927 262.968C299.733 268.083 299.529 273.398 300.106 278.571C300.682 283.744 302.271 289.126 305.559 291.777C309.674 295.094 315.711 292.338 317.558 286.3C318.463 283.338 318.432 279.995 319.109 276.921C320.302 271.506 323.52 267.489 326.073 263.047C328.626 258.606 330.635 252.573 328.938 247.419Z" fill="#D1D1EA"/>
<path d="M286.562 194.213C286.962 194.568 287.335 194.95 287.678 195.356C288.034 195.948 288.216 196.622 288.204 197.305C288.192 197.989 287.986 198.657 287.61 199.236C288.126 199.208 288.631 199.076 289.092 198.85C289.554 198.624 289.961 198.308 290.29 197.922C291.072 197.062 291.761 196.127 292.344 195.131C292.619 194.789 292.814 194.396 292.919 193.976C293.023 193.556 293.034 193.119 292.95 192.695C292.747 192.138 292.268 191.9 291.932 191.48C291.467 190.66 291.149 189.77 290.993 188.847C290.806 187.982 290.374 187.184 289.744 186.544C289.113 185.903 288.31 185.445 287.425 185.22L287.64 185.26C287.274 185.469 286.985 185.783 286.814 186.159C286.643 186.535 286.597 186.953 286.685 187.354C286.815 188.166 287.355 188.839 287.302 189.667C287.224 190.857 285.992 191.415 285.915 192.605C285.903 193.202 286.136 193.78 286.562 194.213Z" fill="#D1D1EA"/>
<path d="M279.214 173.991L279.233 173.987C279.365 173.872 279.487 173.746 279.598 173.612L279.214 173.991Z" fill="#D1D1EA"/>
<path d="M280.501 179.577C281.016 179.141 281.397 178.577 281.602 177.946C281.807 177.316 281.829 176.643 281.665 176.001C281.353 174.648 280.251 173.738 279.234 173.988C278.938 174.277 278.572 174.488 278.169 174.602C277.766 174.717 277.34 174.731 276.929 174.642C276.301 174.486 275.61 174.084 275.065 174.541C274.753 174.882 274.535 175.294 274.43 175.737C274.228 176.335 274.026 176.933 273.824 177.53C273.729 177.744 273.704 177.981 273.753 178.21C273.792 178.301 273.854 178.381 273.934 178.443C274.014 178.504 274.109 178.545 274.21 178.561C275.422 178.905 276.633 179.249 277.844 179.594C278.261 179.779 278.715 179.874 279.174 179.871C279.633 179.868 280.086 179.768 280.501 179.577Z" fill="#D1D1EA"/>
<path d="M371.927 256.689C371.367 255.805 370.807 254.921 370.248 254.036C369.698 253.013 368.946 252.102 368.034 251.356C367.834 251.194 367.602 251.072 367.352 250.998C367.103 250.924 366.84 250.899 366.58 250.924C366.32 250.949 366.067 251.024 365.838 251.145C365.608 251.265 365.406 251.429 365.243 251.626L365.311 252.131C366.81 253.681 367.831 255.604 368.261 257.683C368.388 258.586 368.344 259.521 368.456 260.429C368.468 260.849 368.565 261.264 368.743 261.648C368.921 262.032 369.176 262.379 369.493 262.669C370.375 263.237 371.41 262.399 372.037 261.377C372.598 260.537 372.85 259.54 372.751 258.546C372.611 257.879 372.331 257.247 371.927 256.689Z" fill="#D1D1EA"/>
<path d="M380.709 257.839C380.816 257.012 380.746 256.172 380.504 255.371C380.464 254.288 380.762 253.217 381.359 252.299C381.952 251.433 382.401 250.482 382.691 249.482C382.813 249.026 382.791 248.546 382.627 248.103C382.442 247.701 381.993 247.518 381.735 247.836L382.286 248.178C381.542 248.05 380.778 248.086 380.05 248.283C379.635 248.436 379.265 248.683 378.97 249.004C378.675 249.325 378.464 249.709 378.356 250.125C378.265 250.774 378.116 251.413 377.911 252.037C377.583 252.689 376.947 252.905 376.547 253.477C376.274 253.984 376.137 254.549 376.147 255.12C376.156 255.691 376.313 256.251 376.603 256.749C377.105 257.564 377.903 258.169 378.842 258.448C379.515 258.681 380.401 258.693 380.709 257.839Z" fill="#D1D1EA"/>
<path d="M396.348 262.391C396.591 263.002 396.917 263.579 397.317 264.107C398.066 264.834 399.083 264.387 399.992 264.21C400.816 264.085 401.66 264.177 402.434 264.476C403.209 264.776 403.885 265.272 404.391 265.912C404.038 264.218 403.27 262.63 402.149 261.281C401.028 259.932 399.589 258.863 397.951 258.162C395.822 257.451 393.58 257.113 391.328 257.163L390.943 257.258C391.923 260.01 395.001 259.949 396.348 262.391Z" fill="#D1D1EA"/>
<path d="M330.111 268.017L330.116 268.029L330.227 267.824L330.111 268.017Z" fill="#D1D1EA"/>
<path d="M327.738 272.45C327.221 273.356 326.776 274.299 326.407 275.27C325.919 276.844 325.596 278.461 325.442 280.096C325.322 281.026 325.285 282.214 325.889 282.668C326.062 282.779 326.272 282.825 326.478 282.798C326.684 282.771 326.873 282.672 327.01 282.521C327.345 282.178 327.62 281.785 327.822 281.356C329.01 279.383 329.932 277.273 330.566 275.075C331.227 272.744 331.069 270.267 330.116 268.032C329.324 269.505 328.531 270.977 327.738 272.45Z" fill="#D1D1EA"/>
<path d="M304.85 154.43C305.227 154.785 305.704 155.027 306.221 155.124C306.738 155.221 307.274 155.171 307.761 154.978C308.771 154.552 309.698 153.962 310.5 153.233C311.165 152.759 311.729 152.165 312.161 151.486C312.399 151.079 312.551 150.632 312.61 150.169C312.668 149.705 312.631 149.236 312.5 148.786C312.315 148.356 312.018 147.978 311.639 147.689C311.26 147.399 310.811 147.208 310.334 147.133C308.99 146.749 307.645 146.364 306.301 145.98L307.274 145.134C306.273 144.616 305.166 145.577 304.541 146.767C304.14 147.545 303.86 148.375 303.711 149.231C303.499 150.125 303.491 151.054 303.687 151.951C303.884 152.849 304.281 153.695 304.85 154.43Z" fill="#D1D1EA"/>
<path d="M328.583 146.745C328.962 147.148 329.485 147.396 330.047 147.44C330.609 147.485 331.168 147.321 331.609 146.982C331.989 146.707 332.305 146.358 332.535 145.957C332.766 145.556 332.907 145.113 332.948 144.656C333.043 143.636 332.52 142.503 331.774 142.415L331.945 141.46C330.506 141.209 328.736 141.159 327.965 142.844C327.705 143.489 327.625 144.189 327.734 144.874C327.842 145.558 328.135 146.204 328.583 146.745Z" fill="#D1D1EA"/>
<path d="M543.081 77.1562H49.8797C49.5417 77.149 49.2201 77.0145 48.9837 76.7814C48.7473 76.5482 48.6149 76.2351 48.6149 75.909C48.6149 75.5829 48.7473 75.2698 48.9837 75.0367C49.2201 74.8036 49.5417 74.669 49.8797 74.6619H543.081C543.419 74.669 543.74 74.8036 543.977 75.0367C544.213 75.2698 544.345 75.5829 544.345 75.909C544.345 76.2351 544.213 76.5482 543.977 76.7814C543.74 77.0145 543.419 77.149 543.081 77.1562Z" fill="#CACACA"/>
<path d="M78.3457 59.696C86.029 59.696 92.2576 53.5538 92.2576 45.9771C92.2576 38.4004 86.029 32.2583 78.3457 32.2583C70.6624 32.2583 64.4338 38.4004 64.4338 45.9771C64.4338 53.5538 70.6624 59.696 78.3457 59.696Z" fill="#2F2D61"/>
<path d="M126.405 59.696C134.088 59.696 140.317 53.5538 140.317 45.9771C140.317 38.4004 134.088 32.2583 126.405 32.2583C118.721 32.2583 112.493 38.4004 112.493 45.9771C112.493 53.5538 118.721 59.696 126.405 59.696Z" fill="#2F2D61"/>
<path d="M174.464 59.696C182.147 59.696 188.376 53.5538 188.376 45.9771C188.376 38.4004 182.147 32.2583 174.464 32.2583C166.781 32.2583 160.552 38.4004 160.552 45.9771C160.552 53.5538 166.781 59.696 174.464 59.696Z" fill="#2F2D61"/>
<path d="M514.281 35.6584H480.142C479.465 35.6714 478.821 35.9398 478.347 36.406C477.873 36.8722 477.608 37.4991 477.608 38.1519C477.608 38.8048 477.873 39.4316 478.347 39.8978C478.821 40.3641 479.465 40.6325 480.142 40.6454H514.281C514.958 40.6325 515.602 40.3641 516.076 39.8978C516.55 39.4316 516.815 38.8048 516.815 38.1519C516.815 37.4991 516.55 36.8722 516.076 36.406C515.602 35.9398 514.958 35.6714 514.281 35.6584Z" fill="#2F2D61"/>
<path d="M514.281 45.0182H480.142C479.465 45.0311 478.821 45.2996 478.347 45.7658C477.873 46.232 477.608 46.8588 477.608 47.5117C477.608 48.1646 477.873 48.7914 478.347 49.2576C478.821 49.7238 479.465 49.9922 480.142 50.0052H514.281C514.958 49.9922 515.602 49.7238 516.076 49.2576C516.55 48.7914 516.815 48.1646 516.815 47.5117C516.815 46.8588 516.55 46.232 516.076 45.7658C515.602 45.2996 514.958 45.0311 514.281 45.0182Z" fill="#2F2D61"/>
<path d="M514.281 54.3658H480.142C479.465 54.3788 478.821 54.6472 478.347 55.1134C477.873 55.5796 477.608 56.2065 477.608 56.8593C477.608 57.5122 477.873 58.1391 478.347 58.6053C478.821 59.0715 479.465 59.3399 480.142 59.3529H514.281C514.958 59.3399 515.602 59.0715 516.076 58.6053C516.55 58.1391 516.815 57.5122 516.815 56.8593C516.815 56.2065 516.55 55.5796 516.076 55.1134C515.602 54.6472 514.958 54.3788 514.281 54.3658Z" fill="#2F2D61"/>
</svg>
